<svg width="67" height="32" viewBox="0 0 67 32" fill="none" xmlns="http://www.w3.org/2000/svg">
<path d="M8.33065 21.44C6.6382 21.44 5.16621 21.1342 3.91465 20.5227C2.66309 19.8969 1.70309 19.0151 1.03465 17.8773C0.366205 16.7396 0.0319824 15.4169 0.0319824 13.9093C0.0319824 11.8187 0.423094 9.96267 1.20532 8.34133C2.00176 6.72 3.07554 5.46844 4.42665 4.58667C5.77776 3.69067 7.2782 3.24267 8.92798 3.24267C10.464 3.24267 11.6302 3.64089 12.4267 4.43733C13.2231 5.21955 13.6213 6.25778 13.6213 7.552C13.6213 8.41956 13.4649 9.11644 13.152 9.64267C12.8533 10.1689 12.4195 10.432 11.8506 10.432C11.4524 10.432 11.1395 10.3396 10.912 10.1547C10.6844 9.96978 10.5706 9.69956 10.5706 9.344C10.5706 9.216 10.5991 8.98133 10.656 8.64C10.7413 8.21333 10.784 7.872 10.784 7.616C10.784 6.32178 10.0942 5.67467 8.71465 5.67467C7.77598 5.67467 6.87998 5.98044 6.02665 6.592C5.17332 7.20356 4.48354 8.10667 3.95732 9.30133C3.43109 10.4818 3.16798 11.8898 3.16798 13.5253C3.16798 15.232 3.64443 16.5547 4.59732 17.4933C5.55021 18.4178 6.95821 18.88 8.82132 18.88C9.74576 18.88 10.6773 18.7662 11.616 18.5387C12.5689 18.2969 13.6213 17.9342 14.7733 17.4507C14.9867 17.3653 15.1644 17.3227 15.3066 17.3227C15.5342 17.3227 15.7049 17.408 15.8186 17.5787C15.9324 17.7493 15.9893 17.9698 15.9893 18.24C15.9893 19.1076 15.52 19.7476 14.5813 20.16C13.5715 20.6009 12.5191 20.928 11.424 21.1413C10.3431 21.3404 9.31198 21.44 8.33065 21.44Z" fill="#4C75F2"/>
<path d="M22.401 16.576C22.5859 16.576 22.7281 16.6613 22.8277 16.832C22.9414 17.0027 22.9983 17.2373 22.9983 17.536C22.9983 18.1049 22.8632 18.5458 22.593 18.8587C21.9814 19.6124 21.313 20.2311 20.5876 20.7147C19.8765 21.1982 19.0659 21.44 18.1557 21.44C16.9041 21.44 15.9725 20.8711 15.361 19.7333C14.7636 18.5956 14.465 17.1236 14.465 15.3173C14.465 13.5822 14.6854 11.6053 15.1263 9.38667C15.5814 7.168 16.2428 5.26222 17.1103 3.66933C17.9921 2.07644 19.0374 1.28 20.2463 1.28C20.929 1.28 21.4623 1.6 21.8463 2.24C22.2445 2.86578 22.4436 3.76889 22.4436 4.94933C22.4436 6.64178 21.9743 8.60444 21.0357 10.8373C20.097 13.0702 18.8241 15.2818 17.217 17.472C17.3165 18.0551 17.4801 18.4747 17.7076 18.7307C17.9352 18.9724 18.2339 19.0933 18.6036 19.0933C19.1868 19.0933 19.6988 18.9298 20.1397 18.6027C20.5805 18.2613 21.1423 17.6853 21.825 16.8747C21.9956 16.6756 22.1877 16.576 22.401 16.576ZM19.777 3.392C19.4499 3.392 19.0801 3.98222 18.6677 5.16267C18.2552 6.34311 17.8925 7.808 17.5797 9.55733C17.2668 11.3067 17.0961 12.9849 17.0676 14.592C18.0774 12.928 18.881 11.264 19.4783 9.6C20.0756 7.92178 20.3743 6.39289 20.3743 5.01333C20.3743 3.93244 20.1752 3.392 19.777 3.392Z" fill="#4C75F2"/>
<path d="M24.0687 9.984C23.4713 9.984 23.0233 9.84889 22.7247 9.57867C22.426 9.29422 22.2767 8.90311 22.2767 8.40533C22.2767 7.90756 22.4686 7.49511 22.8526 7.168C23.2509 6.82667 23.7415 6.656 24.3246 6.656C24.8509 6.656 25.2775 6.784 25.6047 7.04C25.9318 7.296 26.0953 7.65867 26.0953 8.128C26.0953 8.69689 25.9104 9.152 25.5407 9.49333C25.1709 9.82044 24.6802 9.984 24.0687 9.984ZM23.898 21.44C22.9735 21.44 22.298 21.1129 21.8713 20.4587C21.4589 19.8044 21.2526 18.9369 21.2526 17.856C21.2526 17.216 21.3309 16.3982 21.4873 15.4027C21.658 14.3929 21.8713 13.4542 22.1273 12.5867C22.2553 12.1316 22.426 11.8187 22.6393 11.648C22.8526 11.4773 23.194 11.392 23.6633 11.392C24.3886 11.392 24.7513 11.6338 24.7513 12.1173C24.7513 12.4729 24.6162 13.2978 24.346 14.592C24.0047 16.1564 23.834 17.216 23.834 17.7707C23.834 18.1973 23.8909 18.5244 24.0046 18.752C24.1184 18.9796 24.3104 19.0933 24.5807 19.0933C24.8367 19.0933 25.1567 18.9156 25.5407 18.56C25.9247 18.2044 26.4367 17.6427 27.0767 16.8747C27.2473 16.6756 27.4393 16.576 27.6526 16.576C27.8375 16.576 27.9798 16.6613 28.0793 16.832C28.1931 17.0027 28.25 17.2373 28.25 17.536C28.25 18.1049 28.1149 18.5458 27.8447 18.8587C26.4367 20.5796 25.1211 21.44 23.898 21.44Z" fill="#4C75F2"/>
<path d="M30.5986 21.44C29.2049 21.44 28.1169 21.0489 27.3346 20.2667C26.5666 19.4702 26.1827 18.4249 26.1827 17.1307C26.1827 15.9787 26.4102 14.9689 26.8653 14.1013C27.3204 13.2338 27.9106 12.5653 28.636 12.096C29.3613 11.6267 30.1222 11.392 30.9187 11.392C31.7009 11.392 32.3053 11.6267 32.732 12.096C33.1729 12.5511 33.3933 13.1413 33.3933 13.8667C33.3933 14.464 33.2582 14.9689 32.988 15.3813C32.732 15.7938 32.3906 16 31.964 16C31.6938 16 31.4733 15.936 31.3027 15.808C31.1462 15.68 31.068 15.5022 31.068 15.2747C31.068 15.1751 31.0822 15.0613 31.1107 14.9333C31.1391 14.8053 31.1604 14.7129 31.1747 14.656C31.2458 14.4427 31.2813 14.2436 31.2813 14.0587C31.2813 13.8738 31.2315 13.7316 31.132 13.632C31.0467 13.5324 30.9187 13.4827 30.748 13.4827C30.4209 13.4827 30.1151 13.632 29.8307 13.9307C29.5462 14.2151 29.3186 14.6062 29.148 15.104C28.9773 15.6018 28.892 16.1493 28.892 16.7467C28.892 18.3964 29.6102 19.2213 31.0466 19.2213C31.6298 19.2213 32.2555 19.0293 32.924 18.6453C33.6067 18.2471 34.2751 17.6569 34.9293 16.8747C35.1 16.6756 35.292 16.576 35.5053 16.576C35.6902 16.576 35.8324 16.6613 35.932 16.832C36.0458 17.0027 36.1026 17.2373 36.1026 17.536C36.1026 18.0764 35.9675 18.5173 35.6973 18.8587C35.0289 19.6836 34.2253 20.3236 33.2867 20.7787C32.3622 21.2196 31.4662 21.44 30.5986 21.44Z" fill="#4C75F2"/>
<path d="M46.7088 16.576C46.8937 16.576 47.0359 16.6613 47.1355 16.832C47.2493 17.0027 47.3062 17.2373 47.3062 17.536C47.3062 18.1049 47.171 18.5458 46.9008 18.8587C46.2608 19.6409 45.6137 20.2667 44.9595 20.736C44.3053 21.2053 43.5302 21.44 42.6342 21.44C41.539 21.44 40.6573 21.1271 39.9888 20.5013C39.3204 19.8756 38.9862 19.0436 38.9862 18.0053C38.9862 17.4507 39.2706 17.0524 39.8395 16.8107C40.4653 16.5404 40.9133 16.256 41.1835 15.9573C41.4537 15.6444 41.5888 15.2676 41.5888 14.8267C41.5888 14.5707 41.5319 14.3787 41.4182 14.2507C41.3186 14.1227 41.1906 14.0587 41.0342 14.0587C40.6502 14.0587 40.2235 14.336 39.7542 14.8907C39.299 15.4453 38.8724 16.1636 38.4742 17.0453C38.0759 17.9129 37.763 18.8089 37.5355 19.7333C37.379 20.4018 37.1941 20.8569 36.9808 21.0987C36.7817 21.3262 36.4617 21.44 36.0208 21.44C35.5799 21.44 35.2528 21.2836 35.0395 20.9707C34.8404 20.6436 34.7053 20.1458 34.6342 19.4773C34.563 18.8089 34.5275 17.8276 34.5275 16.5333C34.5275 14.3431 34.7479 12.0604 35.1888 9.68533C35.6439 7.31022 36.3053 5.31911 37.1728 3.712C38.0546 2.09067 39.107 1.28 40.3302 1.28C40.9844 1.28 41.5106 1.56444 41.9088 2.13333C42.3213 2.688 42.5275 3.41333 42.5275 4.30933C42.5275 5.74578 42.1079 7.23911 41.2688 8.78933C40.4297 10.3253 39.0644 12.1244 37.1728 14.1867C37.1302 14.9262 37.1088 15.6871 37.1088 16.4693C37.7915 14.6916 38.5737 13.4044 39.4555 12.608C40.3373 11.7973 41.1622 11.392 41.9302 11.392C42.6413 11.392 43.2101 11.6338 43.6368 12.1173C44.0777 12.6009 44.2982 13.1982 44.2982 13.9093C44.2982 14.6916 44.099 15.4098 43.7008 16.064C43.3026 16.7182 42.6199 17.3013 41.6528 17.8133C41.7097 18.1973 41.8804 18.5102 42.1648 18.752C42.4635 18.9796 42.819 19.0933 43.2315 19.0933C43.6724 19.0933 44.099 18.9227 44.5115 18.5813C44.9239 18.24 45.4644 17.6711 46.1328 16.8747C46.3035 16.6756 46.4955 16.576 46.7088 16.576ZM39.8821 3.392C39.6261 3.392 39.3417 3.76178 39.0288 4.50133C38.7159 5.22667 38.4102 6.21511 38.1115 7.46667C37.827 8.704 37.5924 10.0551 37.4075 11.52C38.2893 10.4818 39.0146 9.35111 39.5835 8.128C40.1666 6.90489 40.4582 5.79555 40.4582 4.8C40.4582 4.34489 40.4084 3.99644 40.3088 3.75467C40.2093 3.51289 40.067 3.392 39.8821 3.392Z" fill="#4C75F2"/>
<path d="M48.3812 9.984C47.7838 9.984 47.3358 9.84889 47.0372 9.57867C46.7385 9.29422 46.5891 8.90311 46.5891 8.40533C46.5891 7.90756 46.7812 7.49511 47.1652 7.168C47.5634 6.82667 48.054 6.656 48.6372 6.656C49.1634 6.656 49.59 6.784 49.9172 7.04C50.2443 7.296 50.4078 7.65867 50.4078 8.128C50.4078 8.69689 50.2229 9.152 49.8532 9.49333C49.4834 9.82044 48.9927 9.984 48.3812 9.984ZM48.2105 21.44C47.286 21.44 46.6105 21.1129 46.1838 20.4587C45.7714 19.8044 45.5652 18.9369 45.5652 17.856C45.5652 17.216 45.6434 16.3982 45.7998 15.4027C45.9705 14.3929 46.1838 13.4542 46.4398 12.5867C46.5678 12.1316 46.7385 11.8187 46.9518 11.648C47.1652 11.4773 47.5065 11.392 47.9758 11.392C48.7011 11.392 49.0638 11.6338 49.0638 12.1173C49.0638 12.4729 48.9287 13.2978 48.6585 14.592C48.3172 16.1564 48.1465 17.216 48.1465 17.7707C48.1465 18.1973 48.2034 18.5244 48.3172 18.752C48.4309 18.9796 48.6229 19.0933 48.8931 19.0933C49.1491 19.0933 49.4692 18.9156 49.8532 18.56C50.2372 18.2044 50.7492 17.6427 51.3892 16.8747C51.5598 16.6756 51.7518 16.576 51.9652 16.576C52.15 16.576 52.2923 16.6613 52.3918 16.832C52.5056 17.0027 52.5625 17.2373 52.5625 17.536C52.5625 18.1049 52.4274 18.5458 52.1572 18.8587C50.7492 20.5796 49.4336 21.44 48.2105 21.44Z" fill="#4C75F2"/>
<path d="M59.1402 15.36C59.5384 15.36 59.7375 15.6587 59.7375 16.256C59.7375 17.3796 58.8557 17.9413 57.0921 17.9413C56.7508 17.9413 56.2601 17.8773 55.6201 17.7493C55.805 18.6311 55.9544 19.6124 56.0682 20.6933C56.1962 21.76 56.2601 22.6418 56.2601 23.3387C56.2601 24.8747 56.0113 26.048 55.5135 26.8587C55.0157 27.6693 54.3615 28.0747 53.5508 28.0747C52.5268 28.0747 51.7944 27.3493 51.3535 25.8987C50.9268 24.448 50.7135 22.2578 50.7135 19.328C50.7135 16.5973 51.005 13.8311 51.5882 11.0293C52.1855 8.21333 52.9962 5.888 54.0202 4.05333C55.0584 2.20444 56.1961 1.28 57.4335 1.28C58.1019 1.28 58.621 1.57867 58.9908 2.176C59.3748 2.77333 59.5668 3.57689 59.5668 4.58667C59.5668 7.92889 57.5686 11.5698 53.5722 15.5093C53.4299 16.9031 53.3588 18.1262 53.3588 19.1787C53.3588 20.6436 53.4086 22.144 53.5081 23.68C53.6077 25.2302 53.7713 26.0053 53.9988 26.0053C54.4255 26.0053 54.6388 25.2658 54.6388 23.7867C54.6388 22.6773 54.5606 21.6036 54.4042 20.5653C54.2619 19.5271 54.0628 18.432 53.8068 17.28C53.7926 17.0951 53.8495 16.8604 53.9775 16.576C54.1197 16.2916 54.2904 16.0427 54.4895 15.8293C54.6886 15.616 54.8664 15.5093 55.0228 15.5093C55.3073 15.5093 55.6486 15.5236 56.0468 15.552C56.1748 15.5662 56.3242 15.5733 56.4948 15.5733C57.0637 15.5733 57.6966 15.5236 58.3935 15.424C58.5073 15.4098 58.6282 15.3956 58.7562 15.3813C58.8842 15.3671 59.0122 15.36 59.1402 15.36ZM56.9855 3.392C56.7295 3.392 56.4095 3.82578 56.0255 4.69333C55.6557 5.56089 55.2859 6.71289 54.9161 8.14933C54.5464 9.57156 54.2264 11.0791 53.9562 12.672C55.0939 11.3778 55.9686 10.0338 56.5802 8.64C57.1917 7.232 57.5046 5.91644 57.5188 4.69333C57.5188 3.82578 57.341 3.392 56.9855 3.392Z" fill="#4C75F2"/>
<path d="M65.5948 11.392C65.9219 11.392 66.1495 11.4347 66.2775 11.52C66.4055 11.6053 66.4695 11.7476 66.4695 11.9467C66.4695 12.288 66.2846 13.504 65.9148 15.5947C65.5877 17.6 65.3957 18.7876 65.3388 19.1573C64.8126 22.8124 64.0873 25.7067 63.1628 27.84C62.2384 29.9733 61.0081 31.04 59.4721 31.04C58.7468 31.04 58.1566 30.8124 57.7015 30.3573C57.2464 29.9164 57.0188 29.3333 57.0188 28.608C57.0188 27.9396 57.1682 27.2569 57.4668 26.56C57.7797 25.8631 58.3486 25.0596 59.1735 24.1493C60.0126 23.2533 61.193 22.2222 62.7148 21.056L62.7788 20.5653C62.8784 20.0391 62.9921 19.2853 63.1201 18.304C62.8357 19.328 62.4375 20.1102 61.9255 20.6507C61.4135 21.1769 60.873 21.44 60.3042 21.44C59.6642 21.44 59.1379 21.1484 58.7255 20.5653C58.3273 19.968 58.1282 19.2284 58.1282 18.3467C58.1282 17.28 58.1993 16.3058 58.3415 15.424C58.4837 14.528 58.7184 13.5822 59.0455 12.5867C59.1877 12.16 59.3868 11.8542 59.6428 11.6693C59.8988 11.4844 60.3042 11.392 60.8588 11.392C61.1717 11.392 61.385 11.4418 61.4988 11.5413C61.6268 11.6409 61.6908 11.7902 61.6908 11.9893C61.6908 12.1031 61.6126 12.4871 61.4562 13.1413C61.3139 13.6676 61.2002 14.144 61.1148 14.5707C61.001 15.1538 60.9015 15.7156 60.8161 16.256C60.7308 16.7822 60.6882 17.216 60.6882 17.5573C60.6882 18.0978 60.8375 18.368 61.1362 18.368C61.3495 18.368 61.6126 18.1547 61.9255 17.728C62.2526 17.3013 62.5939 16.6542 62.9495 15.7867C63.3193 14.9191 63.6748 13.8524 64.0162 12.5867C64.1299 12.16 64.3006 11.8542 64.5281 11.6693C64.7699 11.4844 65.1255 11.392 65.5948 11.392ZM59.7068 28.9707C60.0624 28.9707 60.4606 28.5582 60.9015 27.7333C61.3424 26.9084 61.7833 25.536 62.2242 23.616C61.129 24.5404 60.3326 25.3796 59.8348 26.1333C59.3513 26.9013 59.1095 27.5698 59.1095 28.1387C59.1095 28.3804 59.1522 28.5796 59.2375 28.736C59.337 28.8924 59.4935 28.9707 59.7068 28.9707Z" fill="#4C75F2"/>
</svg>
